<?xml version="1.0" encoding="UTF-8"?>
<svg width="72" height="72" viewBox="0 0 72 72" xmlns="http://www.w3.org/2000/svg" role="img" aria-label="Alibee mascot">
  <defs>
    <linearGradient id="g1" x1="0" x2="1" y1="0" y2="1">
      <stop offset="0%" stop-color="#FFD166"/>
      <stop offset="100%" stop-color="#FF9F1C"/>
    </linearGradient>
  </defs>

  <!-- Shadow -->
  <ellipse cx="36" cy="60" rx="16" ry="5" fill="#000" opacity=".22">
    <animate attributeName="rx" values="14;16;14" dur="3.4s" repeatCount="indefinite"/>
    <animate attributeName="opacity" values=".18;.26;.18" dur="3.4s" repeatCount="indefinite"/>
  </ellipse>

  <!-- Body -->
  <g id="bee" transform="translate(0,0)">
    <g id="wings" opacity=".9">
      <!-- Left wing -->
      <path d="M26 20c-8 0-12 8-8 12 4 4 14 2 16-4 1-5-3-8-8-8z" fill="#B3E5FC" opacity=".9">
        <animateTransform attributeName="transform" type="rotate" values="0 28 24;10 28 24;0 28 24" dur="0.55s" repeatCount="indefinite"/>
      </path>
      <!-- Right wing -->
      <path d="M46 20c8 0 12 8 8 12-4 4-14 2-16-4-1-5 3-8 8-8z" fill="#B3E5FC" opacity=".9">
        <animateTransform attributeName="transform" type="rotate" values="0 44 24;-10 44 24;0 44 24" dur="0.55s" repeatCount="indefinite"/>
      </path>
    </g>

    <!-- Thorax -->
    <ellipse cx="36" cy="32" rx="18" ry="13" fill="url(#g1)" stroke="#2a1b00" stroke-opacity=".25"/>
    <!-- Stripes -->
    <rect x="20" y="26" width="32" height="4" rx="2" fill="#2d2115" opacity=".85"/>
    <rect x="22" y="32" width="28" height="4" rx="2" fill="#2d2115" opacity=".85"/>
    <rect x="24" y="38" width="24" height="4" rx="2" fill="#2d2115" opacity=".85"/>
    <!-- Head -->
    <circle cx="26" cy="28" r="7" fill="#2d2115"/>
    <circle cx="24.3" cy="26.5" r="1.5" fill="#fff" opacity=".95"/>
    <!-- Antennae -->
    <path d="M22 20c-3-5-6-7-9-7" stroke="#2d2115" stroke-width="2" fill="none" stroke-linecap="round"/>
    <path d="M29 20c1-5 4-7 7-7" stroke="#2d2115" stroke-width="2" fill="none" stroke-linecap="round"/>

    <!-- Tail stinger glow -->
    <circle cx="52" cy="36" r="3.2" fill="#FF9F1C">
      <animate attributeName="r" values="2.8;3.6;2.8" dur="1.8s" repeatCount="indefinite"/>
      <animate attributeName="opacity" values=".6;1;.6" dur="1.8s" repeatCount="indefinite"/>
    </circle>

    <!-- Body floating animation -->
    <animateTransform attributeName="transform" type="translate" values="0,0;0,-2;0,0" dur="3.4s" repeatCount="indefinite"/>
  </g>
</svg>
