<?xml version="1.0" encoding="UTF-8"?>
<svg version="1.1" xmlns="http://www.w3.org/2000/svg" width="1024" height="1024">
<path d="M0 0 C1.20333984 -0.00386719 2.40667969 -0.00773437 3.64648438 -0.01171875 C14.09087831 -0.00043361 24.24839426 0.29817551 34.375 3 C35.05054932 3.17781006 35.72609863 3.35562012 36.42211914 3.53881836 C38.38796509 4.05860531 40.35033171 4.59149803 42.3125 5.125 C43.35148437 5.39699219 44.39046875 5.66898438 45.4609375 5.94921875 C48.0899311 6.64512882 50.70542446 7.35073223 53.3125 8.125 C53.92480469 8.30530762 54.53710938 8.48561523 55.16796875 8.67138672 C62.20636719 10.86928076 68.77659459 13.98778175 75.4375 17.125 C77.7105514 18.18832574 79.98397832 19.2508492 82.2578125 20.3125 C83.31258789 20.8075 84.36736328 21.3025 85.45410156 21.8125 C87.76241209 22.87241437 90.07493207 23.86318127 92.4296875 24.8125 C95.18590863 26.06736491 96.2737006 27.01225451 98.3125 29.125 C101.30920213 30.87366383 104.33092813 32.53747881 107.39453125 34.1640625 C112.20654673 36.80714018 112.20654673 36.80714018 113.3125 40.125 C114.075625 40.228125 114.83875 40.33125 115.625 40.4375 C118.62399895 41.20468578 119.30630431 41.86802985 121.3125 44.125 C122.199375 44.805625 123.08625 45.48625 124 46.1875 C124.763125 46.826875 125.52625 47.46625 126.3125 48.125 C126.3125 48.785 126.3125 49.445 126.3125 50.125 C127.1478125 50.2178125 127.1478125 50.2178125 128 50.3125 C131.26346487 51.45912279 132.95304906 53.64455157 135.3125 56.125 C136.3025 56.785 137.2925 57.445 138.3125 58.125 C138.3125 58.785 138.3125 59.445 138.3125 60.125 C138.9725 60.125 139.6325 60.125 140.3125 60.125 C141.9375 61.5 141.9375 61.5 143.3125 63.125 C143.3125 63.785 143.3125 64.445 143.3125 65.125 C143.9725 65.125 144.6325 65.125 145.3125 65.125 C146.6796875 66.515625 146.6796875 66.515625 148.1875 68.375 C149.95977834 70.52519063 151.6856159 72.48829706 153.6875 74.4375 C155.3125 76.125 155.3125 76.125 155.3125 78.125 C155.9725 78.125 156.6325 78.125 157.3125 78.125 C157.3125 78.785 157.3125 79.445 157.3125 80.125 C158.3025 80.455 159.2925 80.785 160.3125 81.125 C160.3125 81.785 160.3125 82.445 160.3125 83.125 C160.9725 83.125 161.6325 83.125 162.3125 83.125 C162.6425 84.445 162.9725 85.765 163.3125 87.125 C163.9725 87.125 164.6325 87.125 165.3125 87.125 C166.49609375 88.76953125 166.49609375 88.76953125 167.75 90.9375 C169.38039205 93.74340982 171.00500199 95.85913211 173.3125 98.125 C184.16299064 112.71389498 184.16299064 112.71389498 185.79296875 120.38671875 C186.05013672 121.24716797 186.05013672 121.24716797 186.3125 122.125 C187.3025 122.455 188.2925 122.785 189.3125 123.125 C189.85546875 124.8984375 189.85546875 124.8984375 190.3125 127.125 C191.04813063 128.68377122 191.82253001 130.22456169 192.625 131.75 C194.81281493 136.03105573 196.67738383 140.35140028 198.4140625 144.83203125 C199.16249149 146.7421522 199.97930142 148.62530319 200.8125 150.5 C205.09531589 160.85013839 207.47263126 171.13266317 209.3125 182.125 C209.48265625 183.1046875 209.6528125 184.084375 209.828125 185.09375 C212.64244888 202.70597044 213.33258006 220.37715376 211.3125 238.125 C213.07013672 237.61839844 213.07013672 237.61839844 214.86328125 237.1015625 C222.54035919 234.91360346 230.12496439 232.79877471 238.015625 231.51953125 C240.11876288 231.15827798 242.12918867 230.68210493 244.1875 230.125 C249.80601585 228.65375977 255.57128634 227.95043765 261.3125 227.125 C262.55 226.939375 263.7875 226.75375 265.0625 226.5625 C268.40401215 226.11268106 271.7472363 225.74531546 275.1015625 225.40625 C277.36244907 225.14653138 277.36244907 225.14653138 279.765625 224.625 C282.33196152 224.12117933 284.83213642 223.84276173 287.4375 223.625 C288.40300781 223.5425 289.36851562 223.46 290.36328125 223.375 C291.33652344 223.2925 292.30976562 223.21 293.3125 223.125 C295.08340148 222.95905901 296.85423572 222.79239869 298.625 222.625 C300.52066848 222.45646868 302.41652704 222.29007077 304.3125 222.125 C305.28888428 222.03887451 306.26526855 221.95274902 307.27124023 221.86401367 C317.20888385 221.06728685 327.09748924 220.9276819 337.0625 220.9375 C337.912677 220.93710724 338.762854 220.93671448 339.63879395 220.93630981 C353.36875736 220.94387143 366.94505707 221.49335595 380.61523438 222.85888672 C384.34464727 223.22683205 388.07888432 223.53542982 391.81347656 223.84594727 C394.35662299 224.12992698 396.80809951 224.60525253 399.3125 225.125 C400.42625 225.269375 401.54 225.41375 402.6875 225.5625 C406.36456916 226.1330797 409.738992 227.09534515 413.3125 228.125 C417.87469424 229.14209662 422.42879222 230.0071723 427.0625 230.625 C430.32498043 231.12692007 433.21791922 231.9928363 436.3125 233.125 C437.199375 232.155625 438.08625 231.18625 439 230.1875 C441.63865209 227.52377758 443.45581715 226.3518637 447.3125 226.125 C448.80674467 221.99385296 449.47811555 219.1657015 448.75 214.8125 C447.80092814 208.37867566 449.74803714 202.47169429 453.3125 197.125 C453.85988773 193.08009275 453.87217005 189.16889045 453.3125 185.125 C451.02050597 182.16449126 451.02050597 182.16449126 448.3125 180.125 C446.58186397 175.97147352 447.86302277 172.53466668 448.8828125 168.34375 C449.47121958 165.30542981 449.31139024 163.05032143 448.3125 160.125 C446.34577085 158.9749169 446.34577085 158.9749169 444.3125 158.125 C443.97916667 156.79166667 443.64583333 155.45833333 443.3125 154.125 C442.68730469 153.8259375 442.06210937 153.526875 441.41796875 153.21875 C437.75291416 151.31482554 436.60433366 147.91270645 435.3125 144.125 C434.94899066 141.54176341 434.75416682 139.02892727 434.68359375 136.421875 C434.21921371 133.54760697 433.29891356 132.23386371 431.3125 130.125 C429.49418267 129.06245916 429.49418267 129.06245916 427.5 128.3125 C421.96463793 125.71779903 418.40870818 121.75589964 416.0625 116.125 C413.26570909 111.33050129 409.30614987 108.4769815 404.3125 106.125 C401.39679708 105.82160929 398.71729586 105.927224 395.796875 106.12109375 C391.94895107 106.12714394 390.0459556 104.72178282 387.3125 102.125 C384.3125 97.125 384.3125 97.125 384.3125 94.125 C382.58 93.815625 382.58 93.815625 380.8125 93.5 C374.03289957 91.98985204 367.61617859 89.45787313 361.18505859 86.87451172 C359.55398853 86.22165838 357.9125417 85.59484891 356.26953125 84.97265625 C349.47727967 82.08517865 346.17894959 77.89447504 343.3125 71.125 C341.97081572 65.54730624 340.97452749 60.73133951 343.6640625 55.4921875 C347.68049756 49.42330104 350.81904635 46.11012774 358.07421875 44.51953125 C373.36191903 41.66147938 386.79810124 43.83217751 401 50.0625 C402.68947754 50.79231079 402.68947754 50.79231079 404.41308594 51.53686523 C413.56011665 55.58838204 422.08864366 60.25269352 430.38525391 65.83251953 C432.1906712 67.04329723 434.01822582 68.2094521 435.85546875 69.37109375 C453.67023383 80.99240467 467.98260191 97.33377887 477.875 116 C478.42607422 117.02480469 478.97714844 118.04960937 479.54492188 119.10546875 C481.15062731 122.10354747 482.73272256 125.11319957 484.3125 128.125 C484.75883789 128.94701904 485.20517578 129.76903809 485.66503906 130.6159668 C489.31649588 137.53209754 491.69266125 144.70936584 493.9375 152.1875 C494.1332663 152.83818451 494.32903259 153.48886902 494.5307312 154.15927124 C498.35035717 167.00016959 500.50495918 179.73388761 501.3125 193.125 C501.38718506 194.32817871 501.38718506 194.32817871 501.46337891 195.55566406 C502.31892008 211.8848821 498.81664819 227.26153495 494.29443359 242.8659668 C494.03871582 243.75324463 493.78299805 244.64052246 493.51953125 245.5546875 C493.2872583 246.34085449 493.05498535 247.12702148 492.81567383 247.93701172 C492.16308611 250.40052414 492.16308611 250.40052414 492.3125 254.125 C493.240625 254.49625 494.16875 254.8675 495.125 255.25 C504.79491692 259.42740411 513.63230382 265.0978791 522.40527344 270.87353516 C524.44345658 272.21092978 526.49100544 273.53325209 528.5390625 274.85546875 C529.92226181 275.75721944 531.30508357 276.65954958 532.6875 277.5625 C533.3484668 277.98756836 534.00943359 278.41263672 534.69042969 278.85058594 C536.26698336 279.88958268 537.79539231 281.00098044 539.3125 282.125 C539.3125 282.785 539.3125 283.445 539.3125 284.125 C539.993125 284.33125 540.67375 284.5375 541.375 284.75 C545.22889375 286.55395027 548.39037764 289.0260345 551.3125 292.125 C551.3125 292.785 551.3125 293.445 551.3125 294.125 C552.1478125 294.49625 552.1478125 294.49625 553 294.875 C556.72627894 296.88920483 559.6116384 299.24327089 562.25 302.5625 C564.26078781 305.250154 564.26078781 305.250154 567.125 307.375 C571.24870064 310.70488826 574.16847416 314.89508571 577.3125 319.125 C578.12614593 320.18601568 578.94132602 321.24585616 579.7578125 322.3046875 C580.58887731 323.39036815 581.41960985 324.47630324 582.25 325.5625 C583.02214844 326.57183594 583.79429687 327.58117187 584.58984375 328.62109375 C586.3125 331.125 586.3125 331.125 586.3125 333.125 C586.9725 333.125 587.6325 333.125 588.3125 333.125 C590.91214311 336.60948205 593.06691071 340.40517221 595.3125 344.125 C595.88484375 345.06214844 596.4571875 345.99929688 597.046875 346.96484375 C603.49667631 357.74902988 609.46950664 368.90015273 613.51953125 380.8203125 C614.19008271 382.76920591 614.98820441 384.67348927 615.8125 386.5625 C619.08534293 394.33550196 621.515577 402.03134671 622.74609375 410.37890625 C623.68019315 416.55684644 624.810884 422.70132712 625.90429688 428.8527832 C626.07123047 429.8037085 626.23816406 430.75463379 626.41015625 431.734375 C626.63457397 433.0023291 626.63457397 433.0023291 626.86352539 434.29589844 C627.92782087 441.00229108 628.47841692 447.46802793 628.515625 454.25 C628.52263931 455.10615402 628.52965363 455.96230804 628.53688049 456.84440613 C628.55434066 459.60465789 628.56073634 462.36469497 628.5625 465.125 C628.56351212 466.54010361 628.56351212 466.54010361 628.56454468 467.98379517 C628.53487853 494.08418502 625.11761642 519.15557858 617.3125 544.125 C617.06435547 544.9288916 616.81621094 545.7327832 616.56054688 546.56103516 C615.81779205 548.95947388 615.06632938 551.35502125 614.3125 553.75 C614.065 554.5440625 613.8175 555.338125 613.5625 556.15625 C605.84322005 580.68104567 594.20872508 603.94598489 581.3125 626.125 C580.55187256 627.43694336 580.55187256 627.43694336 579.77587891 628.77539062 C578.15236331 631.56466914 576.51602311 634.34599087 574.875 637.125 C574.35454102 638.01670898 573.83408203 638.90841797 573.29785156 639.82714844 C572.80897461 640.64731445 572.32009766 641.46748047 571.81640625 642.3125 C571.38142822 643.04855469 570.9464502 643.78460937 570.49829102 644.54296875 C569.91132446 645.32607422 569.91132446 645.32607422 569.3125 646.125 C568.6525 646.125 567.9925 646.125 567.3125 646.125 C567.003125 646.90875 566.69375 647.6925 566.375 648.5 C565.3125 651.125 565.3125 651.125 564.3125 653.125 C563.6525 653.125 562.9925 653.125 562.3125 653.125 C561.92578125 654.19814453 561.92578125 654.19814453 561.53125 655.29296875 C560.23865235 658.29660111 558.6847291 660.76005372 556.8125 663.4375 C556.2040625 664.32050781 555.595625 665.20351563 554.96875 666.11328125 C554.4221875 666.77714844 553.875625 667.44101562 553.3125 668.125 C552.6525 668.125 551.9925 668.125 551.3125 668.125 C551.02375 668.888125 550.735 669.65125 550.4375 670.4375 C549.3125 673.125 549.3125 673.125 547.3125 676.125 C546.6525 676.125 545.9925 676.125 545.3125 676.125 C545.003125 676.74375 544.69375 677.3625 544.375 678 C543.6875 679.375 543 680.75 542.3125 682.125 C541.6525 682.125 540.9925 682.125 540.3125 682.125 C540.003125 682.74375 539.69375 683.3625 539.375 684 C538.6875 685.375 538 686.75 537.3125 688.125 C536.6525 688.125 535.9925 688.125 535.3125 688.125 C535.003125 688.74375 534.69375 689.3625 534.375 690 C533.6875 691.375 533 692.75 532.3125 694.125 C531.6525 694.125 530.9925 694.125 530.3125 694.125 C530.3125 694.785 530.3125 695.445 530.3125 696.125 C529.6525 696.125 528.9925 696.125 528.3125 696.125 C528.065 696.681875 527.8175 697.23875 527.5625 697.8125 C526.08325182 700.54910913 524.37782561 702.80150869 522.3125 705.125 C521.6525 705.125 520.9925 705.125 520.3125 705.125 C520.3125 705.785 520.3125 706.445 520.3125 707.125 C517.9375 709.75 517.9375 709.75 515.3125 712.125 C514.6525 712.125 513.9925 712.125 513.3125 712.125 C513.3125 712.785 513.3125 713.445 513.3125 714.125 C512.6525 714.125 511.9925 714.125 511.3125 714.125 C510.9825 715.115 510.6525 716.105 510.3125 717.125 C509.6525 717.125 508.9925 717.125 508.3125 717.125 C508.3125 717.785 508.3125 718.445 508.3125 719.125 C507.6525 719.125 506.9925 719.125 506.3125 719.125 C506.3125 719.785 506.3125 720.445 506.3125 721.125 C504.9375 722.75 504.9375 722.75 503.3125 724.125 C502.6525 724.125 501.9925 724.125 501.3125 724.125 C501.3125 724.785 501.3125 725.445 501.3125 726.125 C499.8515625 727.6328125 499.8515625 727.6328125 497.9375 729.25 C496.99777344 730.05824219 496.99777344 730.05824219 496.0390625 730.8828125 C494.3125 732.125 494.3125 732.125 492.3125 732.125 C492.3125 732.785 492.3125 733.445 492.3125 734.125 C490.8515625 735.6328125 490.8515625 735.6328125 488.9375 737.25 C487.99777344 738.05824219 487.99777344 738.05824219 487.0390625 738.8828125 C485.3125 740.125 485.3125 740.125 483.3125 740.125 C482.9825 741.115 482.6525 742.105 482.3125 743.125 C478.86805556 746.125 478.86805556 746.125 476.3125 746.125 C476.3125 746.785 476.3125 747.445 476.3125 748.125 C474.59102222 749.50159768 472.80872345 750.80272763 471 752.0625 C467.10377279 754.74736415 467.10377279 754.74736415 463.58203125 757.87890625 C462.3125 759.125 462.3125 759.125 460.3125 759.125 C460.3125 759.785 460.3125 760.445 460.3125 761.125 C459.714375 761.393125 459.11625 761.66125 458.5 761.9375 C456.31203926 762.98611967 456.31203926 762.98611967 454.92578125 764.54296875 C452.63789952 766.78653316 449.99615202 768.22102381 447.25 769.84375 C445.33006156 771.11338671 443.93003122 772.49906602 442.3125 774.125 C440.98419884 775.05875626 439.62845419 775.95450888 438.25 776.8125 C437.55777344 777.24949219 436.86554687 777.68648437 436.15234375 778.13671875 C434.3125 779.125 434.3125 779.125 432.3125 779.125 C431.9825 780.115 431.6525 781.105 431.3125 782.125 C429.03949612 783.61902045 426.81778557 784.95295816 424.4375 786.25 C423.79941406 786.60964844 423.16132812 786.96929688 422.50390625 787.33984375 C419.80335235 788.84516294 417.25170463 790.14526512 414.3125 791.125 C414.3125 791.785 414.3125 792.445 414.3125 793.125 C412.69000059 793.96319158 411.06441503 794.7954116 409.4375 795.625 C408.53257812 796.0890625 407.62765625 796.553125 406.6953125 797.03125 C404.3125 798.125 404.3125 798.125 402.3125 798.125 C402.3125 798.785 402.3125 799.445 402.3125 800.125 C401.20684692 800.69661865 401.20684692 800.69661865 400.07885742 801.27978516 C397.84230163 802.43615377 395.60581783 803.59266164 393.36938477 804.74926758 C390.76996713 806.09354199 388.17014253 807.43702524 385.57006836 808.7800293 C378.90013156 812.2264961 372.23626501 815.68379966 365.5859375 819.16796875 C364.36049884 819.80855706 363.13499547 820.44902162 361.90942383 821.08935547 C359.5948778 822.29962786 357.28213998 823.51336613 354.97143555 824.73095703 C353.91996338 825.27993652 352.86849121 825.82891602 351.78515625 826.39453125 C350.87000244 826.87510986 349.95484863 827.35568848 349.01196289 827.85083008 C346.16551901 829.1943763 343.31016714 830.17342197 340.3125 831.125 C338.88590836 831.72700144 337.46823512 832.35078645 336.0625 833 C326.65429165 837.24383527 316.9680006 840.78240746 307.30078125 844.38330078 C305.19687231 845.16813322 303.09442545 845.95679722 300.9921875 846.74609375 C295.92733823 848.64406805 290.94399918 850.23024825 285.6875 851.5 C281.56375581 852.50813894 277.57204979 853.66953652 273.5625 855.0625 C263.72492681 858.43206247 253.54382041 860.81949076 243.328125 862.73046875 C241.29962197 863.1275207 239.31457187 863.6114574 237.3125 864.125 C228.36014229 866.35671311 219.45808682 867.93020837 210.3125 869.125 C206.49563895 869.65300657 202.68915705 870.22163606 198.88671875 870.84375 C188.46843781 872.52697385 178.21075696 873.62635322 167.66796875 874.02783203 C165.17294461 874.13075695 162.68077782 874.26356873 160.1875 874.40234375 C126.76712747 876.23448583 93.8545616 873.87205158 60.94140625 867.7734375 C58.4781827 867.33329206 56.00564637 866.94293061 53.52734375 866.59765625 C50.24609585 866.11523706 47.43371606 865.23043069 44.3125 864.125 C39.87659176 862.78585789 35.45451647 861.68798783 30.9140625 860.78515625 C17.00130136 857.25474089 3.08519617 851.69672951 -9.828125 845.484375 C-11.89375142 844.50235588 -13.9865362 843.57678289 -16.09375 842.6875 C-19.81014378 841.07167662 -23.36911665 839.28927436 -26.9375 837.375 C-27.59443848 837.02284424 -28.25137695 836.67068848 -28.92822266 836.30786133 C-34.69835271 833.17926556 -40.19904251 829.72306688 -45.6875 826.125 C-47.17199425 825.18562815 -48.65777818 824.24829268 -50.14453125 823.3125 C-51.72144218 822.31263879 -53.29826499 821.3126386 -54.875 820.3125 C-55.64312012 819.83192139 -56.41124023 819.35134277 -57.20263672 818.85620117 C-57.91307129 818.40220947 -58.62350586 817.94821777 -59.35546875 817.48046875 C-59.99766357 817.07465576 -60.6398584 816.66884277 -61.30151367 816.25073242 C-61.75888916 815.87924072 -62.21626465 815.50774902 -62.6875 815.125 C-62.6875 814.465 -62.6875 813.805 -62.6875 813.125 C-63.22375 812.8775 -63.76 812.63 -64.3125 812.375 C-67.2698982 810.81847463 -69.98474051 809.09064327 -72.6875 807.125 C-72.6875 806.465 -72.6875 805.805 -72.6875 805.125 C-73.244375 804.8775 -73.80125 804.63 -74.375 804.375 C-77.11160913 802.89575182 -79.36400869 801.19032561 -81.6875 799.125 C-81.6875 798.465 -81.6875 797.805 -81.6875 797.125 C-82.285625 796.856875 -82.88375 796.58875 -83.5 796.3125 C-85.68597854 795.12582594 -87.10082594 794.02900887 -88.6875 792.125 C-88.6875 791.465 -88.6875 790.805 -88.6875 790.125 C-89.3475 790.125 -90.0075 790.125 -90.6875 790.125 C-90.6875 789.465 -90.6875 788.805 -90.6875 788.125 C-91.6775 787.795 -92.6675 787.465 -93.6875 787.125 C-93.6875 786.465 -93.6875 785.805 -93.6875 785.125 C-94.6775 784.795 -95.6675 784.465 -96.6875 784.125 C-97.35416667 782.45833333 -98.02083333 780.79166667 -98.6875 779.125 C-99.6775 778.795 -100.6675 778.465 -101.6875 778.125 C-101.6875 777.465 -101.6875 776.805 -101.6875 776.125 C-102.3475 776.125 -103.0075 776.125 -103.6875 776.125 C-103.914375 775.485625 -104.14125 774.84625 -104.375 774.1875 C-105.49701233 771.95792161 -105.49701233 771.95792161 -107.72286987 771.3999176 C-111.82855068 771.0191875 -115.42061211 771.81793841 -119.43408203 772.66381836 C-120.30471786 772.8392366 -121.1753537 773.01465485 -122.07237244 773.19538879 C-123.96002994 773.57695548 -125.84680083 773.96292892 -127.73276138 774.35279655 C-130.7252264 774.9710238 -133.7199407 775.57700865 -136.71554565 776.17982483 C-144.15966935 777.6803461 -151.59969998 779.20075288 -159.03948975 780.72259521 C-165.32106996 782.0069731 -171.60428305 783.28270401 -177.88998032 784.54678535 C-180.82682924 785.14101631 -183.76091047 785.74775561 -186.69509888 786.35496521 C-209.0611069 790.9072221 -209.0611069 790.9072221 -215.66015625 787.6640625 C-216.34980469 787.03242187 -217.03945312 786.40078125 -217.75 785.75 C-218.81927734 784.81027344 -218.81927734 784.81027344 -219.91015625 783.8515625 C-223.90090049 779.97483952 -224.49869956 777.75990593 -224.90625 772.20703125 C-224.3428518 764.26915303 -219.10477216 757.99833528 -213.45703125 752.78125 C-211.64883382 751.08880913 -210.05042985 749.3160436 -208.4375 747.4375 C-205.42033281 743.93785787 -202.31870277 740.52242911 -199.1875 737.125 C-196.14845466 733.82486653 -193.12593541 730.5155024 -190.1875 727.125 C-186.7807265 723.1941075 -183.25747215 719.37303427 -179.734375 715.546875 C-177.18194857 712.77005943 -174.65766712 709.97519283 -172.1875 707.125 C-169.24903611 703.73446474 -166.22540818 700.42620719 -163.1875 697.125 C-162.24202818 696.0925938 -161.29671272 695.06004438 -160.3515625 694.02734375 C-158.73040262 692.26118276 -157.10204789 690.50154485 -155.4609375 688.75390625 C-154.52121094 687.73103516 -154.52121094 687.73103516 -153.5625 686.6875 C-153.02367187 686.11128906 -152.48484375 685.53507813 -151.9296875 684.94140625 C-148.42476887 679.81628939 -150.0916996 674.16437078 -151.0625 668.4375 C-153.07839132 656.16482832 -153.89186268 644.24097792 -153.875 631.8125 C-153.87472809 631.06066437 -153.87445618 630.30882874 -153.87417603 629.53421021 C-153.84410076 611.41951438 -152.22397195 593.89621583 -148.6875 576.125 C-148.46191406 574.9596875 -148.23632812 573.794375 -148.00390625 572.59375 C-137.53272603 521.00691865 -112.24815533 472.53908654 -80.53125 430.890625 C-77.31403063 426.6599384 -74.25029179 422.32900511 -71.2109375 417.96875 C-70.70820313 417.3603125 -70.20546875 416.751875 -69.6875 416.125 C-69.0275 416.125 -68.3675 416.125 -67.6875 416.125 C-67.378125 415.50625 -67.06875 414.8875 -66.75 414.25 C-66.0625 412.875 -65.375 411.5 -64.6875 410.125 C-64.0275 410.125 -63.3675 410.125 -62.6875 410.125 C-62.4503125 409.58359375 -62.213125 409.0421875 -61.96875 408.484375 C-60.34402243 405.49249863 -58.3373123 403.01340601 -56.1875 400.375 C-55.3934375 399.39015625 -54.599375 398.4053125 -53.78125 397.390625 C-53.0903125 396.64296875 -52.399375 395.8953125 -51.6875 395.125 C-51.0275 395.125 -50.3675 395.125 -49.6875 395.125 C-49.6875 394.465 -49.6875 393.805 -49.6875 393.125 C-49.0275 393.125 -48.3675 393.125 -47.6875 393.125 C-47.33171875 392.28243652 -47.33171875 392.28243652 -46.96875 391.42285156 C-45.39430643 388.59917342 -43.47065455 386.64885158 -41.1875 384.359375 C-39.8571875 383.02519531 -39.8571875 383.02519531 -38.5 381.6640625 C-37.571875 380.74367188 -36.64375 379.82328125 -35.6875 378.875 C-34.759375 377.93914062 -33.83125 377.00328125 -32.875 376.0390625 C-31.988125 375.15476562 -31.10125 374.27046875 -30.1875 373.359375 C-29.3728125 372.54694336 -28.558125 371.73451172 -27.71875 370.89746094 C-25.6875 369.125 -25.6875 369.125 -23.6875 369.125 C-23.6875 368.465 -23.6875 367.805 -23.6875 367.125 C-22.2265625 365.6171875 -22.2265625 365.6171875 -20.3125 364 C-19.68601562 363.46117187 -19.05953125 362.92234375 -18.4140625 362.3671875 C-16.6875 361.125 -16.6875 361.125 -14.6875 361.125 C-14.3575 360.135 -14.0275 359.145 -13.6875 358.125 C-13.0275 358.125 -12.3675 358.125 -11.6875 358.125 C-11.6875 357.465 -11.6875 356.805 -11.6875 356.125 C-7.21691176 352.125 -7.21691176 352.125 -4.6875 352.125 C-4.6875 351.465 -4.6875 350.805 -4.6875 350.125 C-2.70803408 348.76136792 -0.7055755 347.43081356 1.3125 346.125 C1.89 345.5475 2.4675 344.97 3.0625 344.375 C3.475 343.9625 3.8875 343.55 4.3125 343.125 C4.9725 343.125 5.6325 343.125 6.3125 343.125 C6.3125 342.465 6.3125 341.805 6.3125 341.125 C6.951875 341.021875 7.59125 340.91875 8.25 340.8125 C8.930625 340.585625 9.61125 340.35875 10.3125 340.125 C10.6425 339.135 10.9725 338.145 11.3125 337.125 C16.68392857 333.125 16.68392857 333.125 19.3125 333.125 C19.9725 331.805 20.6325 330.485 21.3125 329.125 C20.75377197 328.87854736 20.19504395 328.63209473 19.61938477 328.37817383 C17.03596806 327.23564719 14.45549389 326.08661196 11.875 324.9375 C10.99650391 324.55013672 10.11800781 324.16277344 9.21289062 323.76367188 C3.39756831 321.16716265 -2.16648356 318.29595266 -7.6875 315.125 C-8.85345383 314.47788064 -10.01998813 313.83180414 -11.1875 313.1875 C-14.83497171 311.10323045 -18.29681702 308.75549876 -21.76953125 306.39453125 C-23.65539284 305.09073595 -23.65539284 305.09073595 -25.6875 304.125 C-25.6875 303.465 -25.6875 302.805 -25.6875 302.125 C-27.3375 301.465 -28.9875 300.805 -30.6875 300.125 C-30.6875 299.465 -30.6875 298.805 -30.6875 298.125 C-31.450625 297.83625 -32.21375 297.5475 -33 297.25 C-35.6875 296.125 -35.6875 296.125 -38.6875 294.125 C-38.6875 293.465 -38.6875 292.805 -38.6875 292.125 C-39.491875 291.7846875 -39.491875 291.7846875 -40.3125 291.4375 C-43.43840287 289.71002736 -45.99886409 287.44700374 -48.6875 285.125 C-49.24695313 284.66996094 -49.80640625 284.21492188 -50.3828125 283.74609375 C-54.94667943 279.99062477 -59.15951665 275.88616902 -62.6875 271.125 C-62.6875 270.465 -62.6875 269.805 -62.6875 269.125 C-63.3475 269.125 -64.0075 269.125 -64.6875 269.125 C-66.3125 267.75 -66.3125 267.75 -67.6875 266.125 C-67.6875 265.465 -67.6875 264.805 -67.6875 264.125 C-68.3475 264.125 -69.0075 264.125 -69.6875 264.125 C-73.6875 259.65441176 -73.6875 259.65441176 -73.6875 257.125 C-74.3475 257.125 -75.0075 257.125 -75.6875 257.125 C-76.6775 254.65 -76.6775 254.65 -77.6875 252.125 C-78.3475 252.125 -79.0075 252.125 -79.6875 252.125 C-79.955625 251.155625 -80.22375 250.18625 -80.5 249.1875 C-81.0878125 247.6715625 -81.0878125 247.6715625 -81.6875 246.125 C-82.6775 245.795 -83.6675 245.465 -84.6875 245.125 C-87.10177274 241.92963901 -89.0711103 239.13153305 -89.6875 235.125 C-90.3475 235.125 -91.0075 235.125 -91.6875 235.125 C-93.11102246 232.51520882 -94.53386537 229.90508231 -95.953125 227.29296875 C-97.09623455 225.20499162 -98.25222705 223.12400859 -99.421875 221.05078125 C-99.96328125 220.08527344 -100.5046875 219.11976563 -101.0625 218.125 C-101.56523437 217.238125 -102.06796875 216.35125 -102.5859375 215.4375 C-103.6875 213.125 -103.6875 213.125 -103.6875 210.125 C-104.3475 210.125 -105.0075 210.125 -105.6875 210.125 C-106.02523437 209.16078125 -106.36296875 208.1965625 -106.7109375 207.203125 C-107.16132212 205.92703525 -107.61185053 204.65099624 -108.0625 203.375 C-108.28421875 202.74078125 -108.5059375 202.1065625 -108.734375 201.453125 C-109.87676992 198.22753933 -111.09817484 195.15383688 -112.6875 192.125 C-117.99117735 180.42571172 -121.01767315 167.82761143 -122.6875 155.125 C-122.77773437 154.45017578 -122.86796875 153.77535156 -122.9609375 153.08007812 C-126.26713756 127.68041956 -125.23669097 103.41721337 -116.6875 79.125 C-116.3632605 78.07046631 -116.3632605 78.07046631 -116.0324707 76.99462891 C-114.25201008 71.26910443 -111.82126599 66.21296835 -108.875 61 C-108.46185547 60.24074219 -108.04871094 59.48148438 -107.62304688 58.69921875 C-105.14771002 54.2672597 -102.47375841 50.45396941 -99.01293945 46.73486328 C-97.56120174 44.97159961 -96.68343964 43.17250217 -95.6875 41.125 C-94.12890625 39.58984375 -94.12890625 39.58984375 -92.25 38.0625 C-87.59402528 34.14705508 -83.42425767 29.85235616 -79.203125 25.48046875 C-76.97406821 23.39332397 -75.43124647 22.31486233 -72.6875 21.125 C-71.075483 20.1799314 -69.47175782 19.22062759 -67.875 18.25 C-66.99070313 17.71890625 -66.10640625 17.1878125 -65.1953125 16.640625 C-63.74659456 15.76507584 -62.30158995 14.88318512 -60.8671875 13.984375 C-43.27967252 3.2789311 -20.14327743 -0.06371095 0 0 Z M-59.6875 72.125 C-76.88092881 92.06464256 -84.41147153 119.58292082 -82.89453125 145.62011719 C-81.07626397 167.61943593 -74.90068555 188.58086546 -64.6875 208.125 C-64.34460938 208.78338867 -64.00171875 209.44177734 -63.6484375 210.12011719 C-58.74886851 219.41255513 -53.31757757 227.94389934 -46.6875 236.125 C-46.26742676 236.64658691 -45.84735352 237.16817383 -45.41455078 237.70556641 C-40.26880879 244.0609489 -34.87527637 250.12200804 -29.125 255.9375 C-28.35579224 256.72060547 -28.35579224 256.72060547 -27.57104492 257.51953125 C-25.09461296 260.29429996 -25.09461296 260.29429996 -21.6875 261.125 C-21.6875 261.785 -21.6875 262.445 -21.6875 263.125 C-19.05065253 265.52320305 -19.05065253 265.52320305 -15.6875 266.125 C-15.6875 266.785 -15.6875 267.445 -15.6875 268.125 C5.9369738 285.42457904 32.41509466 298.93867929 60.0625 302.625 C63.24628845 302.13518639 64.78926239 301.44598354 67.52734375 299.87109375 C68.32479004 299.41653809 69.12223633 298.96198242 69.94384766 298.49365234 C70.72550293 298.04199707 71.5071582 297.5903418 72.3125 297.125 C84.17262097 290.35409905 96.23068203 284.07253265 108.4777832 278.03540039 C114.22841601 275.19433566 119.89780749 272.28394712 125.48168945 269.12817383 C127.63965947 267.94573633 129.82148723 266.98829848 132.125 266.125 C135.81986686 264.7052132 139.4784641 263.22768161 143.125 261.6875 C148.51207483 259.43244542 153.94418047 257.31468289 159.40234375 255.23828125 C160.36269531 254.87089844 161.32304687 254.50351562 162.3125 254.125 C163.20839844 253.8671875 164.10429687 253.609375 165.02734375 253.34375 C169.87583522 250.75788788 170.77809014 244.07744009 172.3125 239.125 C182.77443543 200.73574933 172.93122086 163.19118352 154.3125 129.125 C152.41897601 126.04332009 150.41494798 123.06729682 148.3125 120.125 C147.60867188 119.13113281 146.90484375 118.13726562 146.1796875 117.11328125 C131.4792206 97.36853649 115.06992251 80.59124465 94.3125 67.125 C93.38123291 66.51954346 93.38123291 66.51954346 92.43115234 65.90185547 C76.12513695 55.45702608 58.32594722 47.90679555 39.3125 44.125 C38.32507813 43.90199219 37.33765625 43.67898437 36.3203125 43.44921875 C1.70628966 36.70086151 -35.62823837 45.64788199 -59.6875 72.125 Z M325.65557861 268.4151001 C322.96492784 268.77604796 320.27157191 269.11378251 317.57798004 269.45195293 C300.51738127 271.60503479 283.93563571 274.71137132 267.3125 279.125 C265.24623871 279.66389944 263.17991329 280.20255305 261.11352539 280.7409668 C255.98278359 282.08726246 250.86099158 283.46444712 245.74267578 284.85717773 C242.65424436 285.69653807 239.56356472 286.52723525 236.47265625 287.35742188 C227.82973956 289.69091472 219.19084639 292.04479609 210.6640625 294.77734375 C209.54080566 295.13691162 208.41754883 295.49647949 207.26025391 295.86694336 C203.90934186 297.29706178 201.7151383 298.35411815 199.3125 301.125 C199.37139227 304.10745891 199.62872725 306.28554694 200.3125 309.125 C200.57732178 310.34912598 200.84214355 311.57325195 201.11499023 312.83447266 C201.44371328 314.15434199 201.77951675 315.47246117 202.12109375 316.7890625 C202.31489624 317.54186996 202.50869873 318.29467743 202.70837402 319.07029724 C209.00689089 343.20973425 216.58109366 366.92327412 224.39964676 390.60442352 C225.23889661 393.15377176 226.0713988 395.70523001 226.90206909 398.25738525 C233.36541871 418.07835128 240.43294736 436.93160939 249.97427368 455.49777222 C251.70434592 458.89427831 253.31166844 462.3311722 254.8984375 465.796875 C255.60045288 467.32393066 255.60045288 467.32393066 256.31665039 468.88183594 C256.76903076 469.86958008 257.22141113 470.85732422 257.6875 471.875 C262.47747673 482.26088369 267.38687102 492.5831422 272.375 502.875 C272.69482849 503.53512085 273.01465698 504.1952417 273.34417725 504.87536621 C275.32573503 508.96244921 277.31085035 513.04771034 279.3125 517.125 C279.59719147 517.73377991 279.88188293 518.34255981 280.17520142 518.9697876 C282.87923066 524.62710931 286.23316058 529.71951678 289.765625 534.890625 C290.38467712 535.80527527 291.00372925 536.71992554 291.64154053 537.66229248 C293.61066943 540.56962679 295.58638304 543.47241216 297.5625 546.375 C298.87415237 548.3082855 300.18535435 550.24187665 301.49609375 552.17578125 C303.39791334 554.98164728 305.30027093 557.78713204 307.20532227 560.59080505 C310.48194583 565.41407559 313.73516408 570.25069315 316.953125 575.11328125 C319.45459369 578.87756868 322.0175564 582.51146158 324.8125 586.0625 C325.65563807 587.14269083 326.49802779 588.22346601 327.33984375 589.3046875 C327.80245605 589.89733398 328.26506836 590.48998047 328.74169922 591.10058594 C331.98063934 595.2748619 335.17391451 599.48417782 338.375 603.6875 C339.07415527 604.60281494 339.77331055 605.51812988 340.49365234 606.46118164 C346.22896371 613.97919975 346.22896371 613.97919975 348.84765625 617.61328125 C354.50375277 625.42609494 360.92241921 632.32235922 367.56787109 639.28759766 C370.22055625 642.0813436 372.83012687 644.91402344 375.4375 647.75 C376.40872686 648.80480473 377.3800808 649.85949247 378.3515625 650.9140625 C378.83270508 651.43645508 379.31384766 651.95884766 379.80957031 652.49707031 C381.39801899 654.21763168 382.99148677 655.93343764 384.5859375 657.6484375 C385.12589355 658.23028809 385.66584961 658.81213867 386.22216797 659.41162109 C387.24849686 660.51735891 388.27607625 661.62193797 389.30517578 662.72509766 C391.43971382 665.02774439 393.48946841 667.34807761 395.44140625 669.80859375 C397.10977179 671.87402332 398.72078635 673.49272246 400.75 675.1875 C404.4785078 678.37443684 408.09290235 681.66421338 411.6875 685 C427.99952603 701.94990848 427.99952603 701.94990848 448.56640625 711.65625 C453.99160238 710.88687912 456.39015016 708.00648234 460.125 704.1875 C461.53823644 702.79863811 462.95229676 701.41061405 464.3671875 700.0234375 C465.04491211 699.34893555 465.72263672 698.67443359 466.42089844 697.97949219 C468.78430069 695.66245508 471.25133863 693.48218401 473.75 691.3125 C477.78451193 687.70833601 481.39478783 683.85414347 484.96484375 679.79296875 C487.54048287 676.86591131 490.17092088 673.99230825 492.8125 671.125 C496.94657392 666.62571255 501.05465394 662.10435736 505.12890625 657.55078125 C506.60384275 655.91225609 508.09120991 654.28484814 509.58984375 652.66796875 C520.16646759 641.18735997 527.76744976 628.53492221 535.57617188 615.09619141 C537.30943177 612.13025032 539.06452945 609.17845897 540.828125 606.23046875 C541.40151611 605.26987549 541.97490723 604.30928223 542.56567383 603.31958008 C543.64870351 601.50657677 544.73427129 599.69508594 545.82299805 597.88549805 C552.34348683 586.92566152 557.3707336 575.90375343 561.4375 563.8125 C562.06205078 562.00749023 562.06205078 562.00749023 562.69921875 560.16601562 C563.94970808 556.49882826 565.146405 552.81985389 566.3125 549.125 C566.65732422 548.03340576 567.00214844 546.94181152 567.35742188 545.81713867 C570.70139807 534.31770384 572.31075719 522.52105473 574.03222656 510.69116211 C574.56218436 507.06465995 575.11225857 503.44159418 575.6640625 499.81835938 C578.26018108 482.46153328 578.75227677 466.98741868 576.39599609 449.60253906 C576.0631625 447.1299217 575.75146408 444.65525189 575.44140625 442.1796875 C574.18193638 432.47939864 572.20902634 423.48180478 569.3125 414.125 C569.0045565 412.82317681 568.70699019 411.51879619 568.42578125 410.2109375 C563.87467678 391.62191923 555.04413919 372.9282366 542.96386719 358.19335938 C539.95183469 354.4207486 537.22058727 350.44270696 534.4375 346.5 C529.07401524 338.91300248 523.59673828 331.58870727 516.1875 325.875 C511.31837178 322.00775001 506.7524387 317.92467449 502.25537109 313.63769531 C493.96474218 305.82181286 485.13850385 299.52200409 475.25 293.875 C473.71375977 292.9778125 473.71375977 292.9778125 472.14648438 292.0625 C462.55528261 286.52227866 453.00830219 282.52523577 442.5 279.0625 C440.99469727 278.55493164 440.99469727 278.55493164 439.45898438 278.03710938 C432.48062385 275.71995306 425.46762151 273.81181612 418.3125 272.125 C417.59900391 271.94130859 416.88550781 271.75761719 416.15039062 271.56835938 C409.13247611 269.83911294 401.94816106 269.12608131 394.77856445 268.32006836 C392.54209704 268.06725864 390.30724203 267.80273675 388.07226562 267.53710938 C384.26514712 267.09353188 380.4551414 266.70249279 376.63900757 266.34494019 C375.11071889 266.20046092 373.58316196 266.04797469 372.05654907 265.88674927 C356.37868486 264.28973182 341.19154521 266.29619863 325.65557861 268.4151001 Z M52.875 378.4375 C51.9984375 379.16710937 51.121875 379.89671875 50.21875 380.6484375 C48.78015625 381.87433594 48.78015625 381.87433594 47.3125 383.125 C46.26082621 384.01350581 45.20873098 384.90151299 44.15625 385.7890625 C41.94065535 387.66014198 39.72929463 389.5361022 37.51953125 391.4140625 C33.84490141 394.52948584 30.11738731 397.57790524 26.3828125 400.62109375 C16.80543451 408.43165265 7.26497043 416.28390958 -2.15136719 424.28808594 C-5.51233729 427.14142053 -8.89963738 429.95897252 -12.3125 432.75 C-13.19421875 433.471875 -14.0759375 434.19375 -14.984375 434.9375 C-16.85725436 436.45312492 -18.7437015 437.95207843 -20.640625 439.4375 C-28.52383457 445.16813599 -28.52383457 445.16813599 -33.6875 453.125 C-34.7680079 463.35496996 -30.78322736 474.95053823 -28.453125 484.85644531 C-27.95548657 486.98092979 -27.46793264 489.10781065 -26.9921875 491.23730469 C-15.17641183 543.77530722 3.86412299 597.78232879 30.6875 644.5625 C31.24493896 645.54057617 31.80237793 646.51865234 32.37670898 647.52636719 C34.01597179 650.39607449 35.66258196 653.26140821 37.3125 656.125 C37.76415527 656.91084473 38.21581055 657.69668945 38.68115234 658.50634766 C44.74351416 669.02735832 51.1431758 679.31553157 57.67675781 689.54931641 C59.40998413 692.27850112 61.12415907 695.01903604 62.8359375 697.76171875 C68.83433738 707.34124074 74.88392492 716.62998611 81.97607422 725.44238281 C84.10117968 728.11798143 86.16060786 730.84302252 88.2277832 733.56347656 C90.43756915 736.47030909 92.66057865 739.366875 94.88476562 742.26269531 C96.0584663 743.79364414 97.22547785 745.3297189 98.390625 746.8671875 C104.21080405 754.38281001 110.82053184 761.17283714 117.35888672 768.05810547 C119.84063218 770.68375619 122.2948999 773.33415739 124.74902344 775.9855957 C133.14044642 785.04042316 141.58739807 794.07966266 150.99609375 802.09375 C154.29659959 804.98795411 157.48597311 807.99713682 160.6875 811 C169.39083644 819.18286798 169.39083644 819.18286798 178.3125 827.125 C178.86227509 827.68665359 179.41205017 828.24830719 179.97848511 828.82698059 C183.42756441 830.74512254 186.1075925 829.67130599 189.70751953 828.6628418 C190.45034243 828.47110476 191.19316532 828.27936773 191.958498 828.08182049 C193.57189597 827.66338507 195.18314466 827.23659419 196.79239655 826.80248642 C199.31250269 826.12499928 201.83806588 825.47415414 204.36712646 824.83096313 C209.91487118 823.41679506 215.45360975 821.96911702 220.9921875 820.51953125 C223.02332738 819.9894088 225.05450693 819.45943831 227.08572388 818.92961121 C231.30308576 817.82909286 235.52009183 816.72722526 239.73681641 815.62426758 C245.14431724 814.20988918 250.55252942 812.79825348 255.96098137 811.38751698 C260.13722984 810.29800187 264.31320128 809.20742832 268.48907852 808.11649132 C270.48495251 807.59513713 272.48089076 807.07402886 274.47689438 806.55317116 C277.25032765 805.82919692 280.02340767 805.10388561 282.79638672 804.37817383 C283.61916107 804.16363556 284.44193542 803.94909729 285.28964233 803.72805786 C293.3258259 801.66282877 293.3258259 801.66282877 299.3125 796.125 C299.50718652 791.54986683 297.79497118 789.09485707 294.87744141 785.69702148 C292.06343754 782.87028656 288.77178647 780.78761197 285.4375 778.625 C277.89222026 773.67563881 271.37172452 768.5316841 265.51171875 761.64453125 C262.60537153 758.31487946 259.58584362 755.09828093 256.5625 751.875 C250.43322357 745.33256854 244.35944291 738.74358892 238.3125 732.125 C236.9401617 730.62669591 235.56715058 729.12901176 234.19384766 727.6315918 C233.27511138 726.62955547 232.35681485 725.62711578 231.43896484 724.62426758 C229.14334618 722.11672681 226.84170101 719.61526462 224.52734375 717.125 C214.28504672 706.08432167 205.154263 694.69722889 196.73779297 682.21923828 C194.36969571 678.73970107 191.93486656 675.30799315 189.5 671.875 C184.48142328 664.78787835 179.48421411 657.68618154 174.52636719 650.55639648 C171.80565918 646.65034421 169.06713275 642.7683348 166.21484375 638.95703125 C158.10225986 628.02654559 152.02502155 616.36215971 145.90185547 604.22802734 C143.48820368 599.51565957 140.93575885 594.88357148 138.375 590.25 C134.09815357 582.46512206 129.90463652 574.63896036 125.79611206 566.76409912 C124.90700965 565.06130436 124.01328232 563.36092693 123.11938477 561.66064453 C122.56565186 560.59442871 122.01191895 559.52821289 121.44140625 558.4296875 C120.95744385 557.50140137 120.47348145 556.57311523 119.97485352 555.61669922 C115.43847219 546.08823311 111.85302671 536.25389277 108.44140625 526.27734375 C107.99237173 524.97228333 107.54306009 523.66731824 107.0934906 522.36244202 C106.15746233 519.64293069 105.2240591 516.92253827 104.29272461 514.20141602 C103.11930393 510.77332966 101.94034347 507.34718098 100.75968075 503.92158318 C97.91497696 495.66577042 95.09813388 487.40094844 92.3125 479.125 C92.02239044 478.26376526 91.73228088 477.40253052 91.43338013 476.51519775 C85.89104757 459.91337125 81.45697272 442.951976 76.80413818 426.08508301 C75.66956978 421.97526779 74.53083146 417.86660833 73.39257812 413.7578125 C71.91423022 408.41901631 70.43617663 403.08013895 68.96230602 397.74010468 C68.58934715 396.38968652 68.2156052 395.03948434 67.84100056 393.68952179 C67.01720764 390.71478324 66.21228446 387.7373004 65.43978882 384.7487793 C65.05326645 383.25954956 65.05326645 383.25954956 64.65893555 381.74023438 C64.44391891 380.88828491 64.22890228 380.03633545 64.00737 379.15856934 C63.41333752 376.93218202 63.41333752 376.93218202 61.3125 375.125 C56.75063733 375.125 56.2201195 375.62263553 52.875 378.4375 Z " fill="#020101" transform="translate(307.6875,52.875)"/>
<path d="M0 0 C12.34757335 8.98005334 21.12194585 20.62648818 24.40625 35.75 C25.89684833 54.97769042 22.86417162 69.83214912 10.34375 84.875 C-0.17468734 96.08057144 -13.5032359 101.72005637 -28.69067383 102.21826172 C-46.5497043 102.41350804 -60.06883606 97.58541791 -73.26953125 85.234375 C-85.3143803 72.35954476 -88.09560248 58.17861632 -87.87109375 41.265625 C-87.40452521 27.49605001 -80.46416161 16.01081538 -71.19921875 6.140625 C-52.05027816 -11.42931749 -21.85973427 -14.19463264 0 0 Z " fill="#050301" transform="translate(791.59375,433.25)"/>
<path d="M0 0 C0.66 0.33 1.32 0.66 2 1 C-10.54 13.54 -23.08 26.08 -36 39 C-36.66 38.67 -37.32 38.34 -38 38 C-36.625 36 -36.625 36 -35 34 C-34.34 34 -33.68 34 -33 34 C-33 33.34 -33 32.68 -33 32 C-32.34 32 -31.68 32 -31 32 C-30.7628125 31.43829102 -30.525625 30.87658203 -30.28125 30.29785156 C-28.70680643 27.47417342 -26.78315455 25.52385158 -24.5 23.234375 C-23.613125 22.34492188 -22.72625 21.45546875 -21.8125 20.5390625 C-20.884375 19.61867188 -19.95625 18.69828125 -19 17.75 C-18.071875 16.81414062 -17.14375 15.87828125 -16.1875 14.9140625 C-15.300625 14.02976562 -14.41375 13.14546875 -13.5 12.234375 C-12.6853125 11.42194336 -11.870625 10.60951172 -11.03125 9.77246094 C-9 8 -9 8 -7 8 C-7 7.34 -7 6.68 -7 6 C-5.46875 4.4921875 -5.46875 4.4921875 -3.5 2.875 C-2.8503125 2.33617187 -2.200625 1.79734375 -1.53125 1.2421875 C-1.0259375 0.83226562 -0.520625 0.42234375 0 0 Z " fill="#191919" transform="translate(291,414)"/>
<path d="M0 0 C0 3 0 3 -1.62060547 4.99291992 C-2.73266357 6.10050659 -2.73266357 6.10050659 -3.8671875 7.23046875 C-4.67027344 8.03291016 -5.47335938 8.83535156 -6.30078125 9.66210938 C-7.15027344 10.49548828 -7.99976563 11.32886719 -8.875 12.1875 C-9.71675781 13.03248047 -10.55851563 13.87746094 -11.42578125 14.74804688 C-17.73324001 21 -17.73324001 21 -20 21 C-18.90422771 17.71268312 -18.22195399 17.11996244 -15.625 15 C-10.09342288 10.32330298 -5.0753467 5.15931384 0 0 Z " fill="#181818" transform="translate(231,76)"/>
<path d="" fill="#3F3F3F" transform="translate(0,0)"/>
</svg>
